<svg id="SvgjsSvg1008" xmlns="http://www.w3.org/2000/svg" version="1.1" xmlns:xlink="http://www.w3.org/1999/xlink" xmlns:svgjs="http://svgjs.com/svgjs" width="22" height="22" viewBox="0 0 22 22"><title>Shape 4</title><desc>Created with Avocode.</desc><defs id="SvgjsDefs1009"></defs><path id="SvgjsPath1010" d="M1324 1907C1324 1913.07 1328.93 1918 1335 1918C1341.07 1918 1346 1913.07 1346 1907C1346 1900.93 1341.07 1896 1335 1896C1328.93 1896 1324 1900.93 1324 1907ZM1343.885 1902.69V1902.71C1343.895 1902.825 1343.905 1902.945 1343.905 1903.07C1343.985 1903.135 1344.085 1903.245 1344.185 1903.37C1344.4099999999999 1903.935 1344.565 1904.53 1344.6799999999998 1905.145C1344.59 1905.23 1344.465 1905.29 1344.2599999999998 1905.305C1343.2399999999998 1904.5 1344.2399999999998 1906.1850000000002 1344.7999999999997 1905.88C1344.8399999999997 1906.2450000000001 1344.8799999999997 1906.625 1344.8799999999997 1907C1344.8799999999997 1909.445 1343.9799999999996 1911.665 1342.5049999999997 1913.39C1342.5049999999997 1913.325 1342.5199999999998 1913.25 1342.5449999999996 1913.125C1343.2299999999996 1912.295 1343.1049999999996 1910.65 1341.7049999999997 1910.83C1340.9799999999998 1911.3999999999999 1339.9749999999997 1912.135 1339.0899999999997 1911.2949999999998C1338.1699999999996 1910.465 1338.5999999999997 1909.09 1339.1099999999997 1908.1599999999999C1339.6249999999998 1907.4099999999999 1339.7949999999996 1906.3049999999998 1340.7099999999996 1905.9199999999998C1341.6099999999997 1906.1299999999999 1342.7149999999997 1906.0649999999998 1343.0449999999996 1904.965C1343.3249999999996 1904.47 1343.1649999999995 1904.3049999999998 1342.9049999999995 1904.185C1342.8749999999995 1904.175 1342.8599999999994 1904.175 1342.8449999999996 1904.165C1342.5449999999996 1904.04 1342.1649999999995 1903.94 1342.1249999999995 1903.51C1342.3949999999995 1903.045 1341.8249999999996 1902.1 1341.6049999999996 1902.945C1342.0699999999995 1903.475 1342.1799999999996 1905.0549999999998 1341.0699999999995 1904.465C1341.4649999999995 1905.1 1339.6349999999995 1904.695 1339.9899999999996 1905.58C1340.2799999999995 1906.55 1338.3399999999995 1907.095 1338.8899999999996 1905.865C1339.2049999999997 1904.955 1338.7449999999997 1903.595 1339.5499999999997 1903.01C1339.5449999999996 1902.98 1339.6249999999998 1902.86 1339.5899999999997 1902.99C1339.6149999999998 1902.97 1339.6399999999996 1902.945 1339.6699999999996 1902.93C1340.3699999999997 1902.4450000000002 1338.7799999999995 1900.99 1338.8699999999997 1901.89C1339.5599999999997 1902.25 1339.1799999999996 1902.97 1338.5149999999996 1902.6100000000001C1337.8099999999997 1902.265 1337.5549999999996 1900.3400000000001 1338.5299999999997 1900.4750000000001C1339.2699999999998 1900.5700000000002 1338.5649999999998 1899.795 1338.2349999999997 1899.4150000000002C1338.1999999999996 1899.5900000000001 1338.1449999999998 1899.38 1338.1749999999997 1899.3550000000002C1338.1599999999996 1899.3400000000001 1338.1249999999998 1899.3100000000002 1338.1099999999997 1899.2950000000003C1338.2049999999997 1898.1400000000003 1336.2749999999996 1899.1500000000003 1335.9549999999997 1898.1200000000003C1334.7449999999997 1897.5200000000004 1333.3549999999998 1897.4850000000004 1332.0049999999997 1897.5800000000004C1332.5199999999998 1897.4150000000004 1333.0499999999997 1897.3200000000004 1333.5999999999997 1897.2400000000005C1333.6549999999997 1897.2350000000004 1333.7049999999997 1897.2250000000004 1333.7599999999998 1897.2200000000005C1333.9099999999999 1897.2050000000004 1334.0649999999998 1897.1850000000004 1334.1999999999998 1897.1600000000005C1334.4599999999998 1897.1400000000006 1334.7299999999998 1897.1200000000006 1334.9999999999998 1897.1200000000006C1338.9049999999997 1897.1200000000006 1342.2799999999997 1899.4000000000005 1343.8849999999998 1902.6900000000005ZM1331.21 1900.93C1331.315 1900.93 1331.4 1900.9550000000002 1331.4850000000001 1900.99C1331.515 1900.965 1331.525 1900.98 1331.525 1901.015C1331.99 1901.23 1332.0900000000001 1901.8950000000002 1331.3300000000002 1901.8500000000001C1330.2700000000002 1901.5500000000002 1329.8500000000001 1903.805 1330.89 1903.525C1331.2700000000002 1902.4650000000001 1332.4150000000002 1902.9150000000002 1332.625 1903.845C1333.24 1904.805 1331.98 1904.795 1331.545 1905.205C1331.9850000000001 1905.99 1330.78 1905.5749999999998 1330.3300000000002 1905.965C1329.4700000000003 1906.155 1329.2050000000002 1907.4599999999998 1328.45 1907.5C1328.42 1906.13 1326.14 1906.595 1326.515 1907.84C1327 1908.22 1327.65 1908.61 1327.555 1909.415C1327.515 1911.11 1329.605 1910.555 1330.53 1911.455C1331.665 1911.9499999999998 1332.395 1912.98 1333.3999999999999 1913.6499999999999C1334.2699999999998 1913.35 1335.8799999999999 1914.1799999999998 1335.0199999999998 1915.225C1334.5049999999997 1915.605 1333.9049999999997 1915.935 1333.2849999999999 1916.1599999999999V1916.185C1332.9049999999997 1916.315 1332.4999999999998 1916.4099999999999 1332.1049999999998 1916.445C1331.3349999999998 1916.205 1330.6049999999998 1915.87 1329.9299999999998 1915.465C1329.9249999999997 1915.455 1329.935 1915.4499999999998 1329.9299999999998 1915.445C1329.62 1914.5449999999998 1328.7949999999998 1913.99 1328.235 1913.2649999999999C1327.935 1912.9699999999998 1327.895 1912.6349999999998 1327.9099999999999 1912.29C1327.9199999999998 1912.29 1327.9049999999997 1912.2749999999999 1327.9099999999999 1912.27C1327.9499999999998 1911.695 1328.1499999999999 1911.095 1327.735 1910.575C1327.0849999999998 1909.4850000000001 1326.2649999999999 1908.4850000000001 1325.84 1907.28C1325.79 1906.03 1325.725 1904.835 1326.1399999999999 1903.645C1327.06 1901.75 1329.3649999999998 1899.725 1330.87 1898.435C1332.25 1898.895 1330.1699999999998 1900.355 1331.2099999999998 1900.9299999999998ZM1333.92 1899.995C1334.165 1899.995 1334.0800000000002 1900.26 1333.92 1900.3349999999998C1333.355 1900.8649999999998 1333.2150000000001 1900.0849999999998 1333.68 1899.995C1333.7150000000001 1899.985 1333.765 1899.975 1333.805 1899.975C1333.8400000000001 1899.9699999999998 1333.875 1899.985 1333.92 1899.995ZM1335.52 1900.75C1335.805 1901.895 1334.665 1902.635 1334.24 1903.57C1333.19 1903.2749999999999 1334.3 1902.115 1333.84 1901.55C1333.2099999999998 1900.8999999999999 1333.8999999999999 1900.24 1334.58 1900.155C1334.99 1900.105 1335.3999999999999 1900.27 1335.52 1900.75ZM1332.505 1902.945C1332.0200000000002 1902.5 1332.66 1901.845 1332.3850000000002 1901.33C1332.4400000000003 1901.3149999999998 1332.4800000000002 1901.2949999999998 1332.5250000000003 1901.29C1333.1900000000003 1901.25 1333.0600000000004 1902.72 1332.5050000000003 1902.945ZM1338.915 1904.165C1338.705 1904.52 1338.115 1904.49 1338.335 1903.965C1338.095 1903.745 1338.125 1903.655 1338.255 1903.645C1338.4750000000001 1903.635 1338.96 1903.86 1338.9150000000002 1904.165ZM1332.805 1905.625C1332.97 1905.45 1332.6850000000002 1905.515 1332.645 1905.525C1332.31 1905.2900000000002 1332.345 1905.1950000000002 1332.5049999999999 1905.1650000000002C1332.7649999999999 1905.1200000000001 1333.3249999999998 1905.3150000000003 1332.8049999999998 1905.6250000000002ZM1330.29 1906.065H1330.27C1330.2549999999999 1906.055 1330.24 1906.035 1330.23 1906.02C1330.325 1905.985 1330.38 1905.98 1330.41 1905.98C1330.48 1905.99 1330.385 1906.09 1330.2900000000002 1906.065ZM1328.535 1908.76C1328.585 1908.765 1328.66 1908.78 1328.7150000000001 1908.8C1328.7150000000001 1908.805 1328.71 1908.8 1328.7150000000001 1908.815C1328.93 1908.89 1329.13 1909.06 1329.0300000000002 1909.335C1328.8650000000002 1909.4 1328.6900000000003 1909.28 1328.5900000000001 1909.155C1328.2350000000001 1908.935 1328.2400000000002 1908.795 1328.3750000000002 1908.76C1328.4200000000003 1908.745 1328.4700000000003 1908.75 1328.5350000000003 1908.76Z " fill="#74ba4e" fill-opacity="1" transform="matrix(1,0,0,1,-1324,-1896)"></path></svg>