<svg id="SvgjsSvg1020" xmlns="http://www.w3.org/2000/svg" version="1.1" xmlns:xlink="http://www.w3.org/1999/xlink" xmlns:svgjs="http://svgjs.com/svgjs" width="23" height="21" viewBox="0 0 23 21"><title>Shape 8</title><desc>Created with Avocode.</desc><defs id="SvgjsDefs1021"></defs><path id="SvgjsPath1022" d="M726.055 3521.875L717.52 3514C716.9399999999999 3513.53 715.665 3513.595 715.665 3513.595L725.0649999999999 3522.22C726.665 3523.2099999999996 725.5649999999999 3524.9399999999996 725.5649999999999 3524.9399999999996C725.5649999999999 3524.9399999999996 718.27 3532.7649999999994 718.405 3532.8399999999997C719.035 3533.1699999999996 719.8299999999999 3532.9999999999995 720.36 3532.4799999999996L726.09 3525.6999999999994C727.385 3523.9049999999993 727.22 3522.939999999999 726.0550000000001 3521.8749999999995ZM724.56 3522.79L714.525 3513.895C713.89 3513.275 705.225 3513.57 705.225 3513.57C705.225 3513.57 704.7 3523.1800000000003 705.245 3523.26L715.36 3532.48C716.005 3533.1150000000002 717.0500000000001 3533.1150000000002 717.7 3532.48L723.975 3525.65C724.85 3524.665 725.6700000000001 3523.495 724.5600000000001 3522.79ZM709.57 3517.98C708.8950000000001 3518.64 707.8050000000001 3518.64 707.13 3517.98C706.455 3517.32 706.455 3516.25 707.13 3515.59C707.805 3514.9300000000003 708.895 3514.9300000000003 709.57 3515.59C710.245 3516.25 710.245 3517.32 709.57 3517.98Z " fill="#5b9dd2" fill-opacity="1" transform="matrix(1,0,0,1,-704,-3513)"></path></svg>