<svg id="SvgjsSvg1011" xmlns="http://www.w3.org/2000/svg" version="1.1" xmlns:xlink="http://www.w3.org/1999/xlink" xmlns:svgjs="http://svgjs.com/svgjs" width="22" height="23" viewBox="0 0 22 23"><title>Shape 5</title><desc>Created with Avocode.</desc><defs id="SvgjsDefs1012"></defs><path id="SvgjsPath1013" d="M716 2174.5C709.925 2174.5 705 2169.575 705 2163.5C705 2157.425 709.925 2152.5 716 2152.5C722.075 2152.5 727 2157.425 727 2163.5C727 2169.575 722.075 2174.5 716 2174.5ZM716 2154.265C710.9 2154.265 706.765 2158.4 706.765 2163.5C706.765 2168.6 710.9 2172.735 716 2172.735C721.1 2172.735 725.235 2168.6 725.235 2163.5C725.235 2158.4 721.1 2154.265 716 2154.265ZM720.34 2169.35L721.23 2168.44L716.58 2163.46L716.1850000000001 2156.05H715.0200000000001L714.6150000000001 2163.565L714.7200000000001 2164.35Z " fill="#74ba4e" fill-opacity="1" transform="matrix(1,0,0,1,-705,-2152)"></path></svg>