<svg id="SvgjsSvg1014" xmlns="http://www.w3.org/2000/svg" version="1.1" xmlns:xlink="http://www.w3.org/1999/xlink" xmlns:svgjs="http://svgjs.com/svgjs" width="24" height="20" viewBox="0 0 24 20"><title>Shape 6</title><desc>Created with Avocode.</desc><defs id="SvgjsDefs1015"></defs><path id="SvgjsPath1016" d="M704.995 3260.175C704.995 3260.2050000000004 705.01 3260.23 705.015 3260.255H704.995C704.995 3262.855 712.12 3266.755 713.41 3269.35V3275.1949999999997C713.41 3275.9149999999995 714.5699999999999 3276.495 716.005 3276.495C717.43 3276.495 718.59 3275.915 718.59 3275.1949999999997V3269.35C719.885 3266.755 727.01 3262.855 727.01 3260.255H726.99C726.99 3260.23 727.01 3260.205 727.01 3260.175C727.01 3258.7000000000003 722.075 3257.4950000000003 716.005 3257.4950000000003C709.925 3257.4950000000003 704.995 3258.7000000000003 704.995 3260.175ZM724.44 3260.135C724.44 3260.9550000000004 720.6550000000001 3261.6150000000002 716.0050000000001 3261.6150000000002C711.3500000000001 3261.6150000000002 707.565 3260.9550000000004 707.565 3260.135C707.565 3259.32 711.35 3258.67 716.0050000000001 3258.67C720.6550000000001 3258.675 724.44 3259.32 724.44 3260.135Z " fill="#5b9dd2" fill-opacity="1" transform="matrix(1,0,0,1,-704,-3257)"></path></svg>