<svg id="SvgjsSvg1023" xmlns="http://www.w3.org/2000/svg" version="1.1" xmlns:xlink="http://www.w3.org/1999/xlink" xmlns:svgjs="http://svgjs.com/svgjs" width="23" height="17" viewBox="0 0 23 17"><title>Shape 9</title><desc>Created with Avocode.</desc><defs id="SvgjsDefs1024"></defs><path id="SvgjsPath1025" d="M1340.675 3531.985C1340.675 3531.985 1340.68 3530.57 1340.1399999999999 3529.0550000000003C1339.7499999999998 3528.4750000000004 1339.195 3527.9500000000003 1338.4199999999998 3527.4950000000003C1338.4099999999999 3527.0950000000003 1338.37 3526.4950000000003 1338.37 3526.4950000000003C1338.37 3526.4950000000003 1337.425 3526.0550000000003 1337.12 3525.1850000000004C1336.475 3524.925 1336.56 3524.76 1336.495 3524.4300000000003C1336.495 3524.4300000000003 1336.3 3523.0800000000004 1336.735 3523.1050000000005C1336.735 3523.1050000000005 1337.1049999999998 3523.1050000000005 1337.04 3522.7950000000005C1337.0149999999999 3522.2800000000007 1337.055 3521.2800000000007 1337.09 3520.9350000000004C1337.125 3520.5900000000006 1337.2549999999999 3519.6600000000003 1337.98 3519.5200000000004C1338.705 3519.385 1338.415 3519.4550000000004 1338.655 3519.4200000000005C1338.8999999999999 3519.3850000000007 1338.83 3519.2450000000003 1339.28 3519.2450000000003L1340.21 3519.0950000000003C1340.66 3519.0950000000003 1340.95 3519.7200000000003 1341.19 3519.755C1341.43 3519.79 1341.3600000000001 3519.65 1341.855 3519.745C1342.58 3519.88 1342.48 3520.865 1342.515 3521.21C1342.5500000000002 3521.555 1342.575 3522.555 1342.505 3522.8650000000002C1342.4350000000002 3523.175 1342.65 3523.1400000000003 1342.65 3523.1400000000003C1343.17 3523.1400000000003 1343.135 3524.4600000000005 1343.135 3524.4600000000005C1343.055 3524.8100000000004 1342.87 3524.8550000000005 1342.39 3525.1600000000003C1342.0800000000002 3526.03 1341.265 3526.5650000000005 1341.265 3526.5650000000005C1341.265 3526.5650000000005 1341.1950000000002 3527.2300000000005 1341.19 3527.3850000000007C1341.2050000000002 3527.4450000000006 1340.81 3528.4650000000006 1342.81 3528.7600000000007C1344.81 3529.0550000000007 1345.155 3529.7000000000007 1345.5349999999999 3530.060000000001C1345.9099999999999 3530.420000000001 1345.9899999999998 3531.985000000001 1345.9899999999998 3531.985000000001C1345.9899999999998 3531.985000000001 1343.2849999999999 3531.985000000001 1340.6749999999997 3531.985000000001ZM1336.195 3522.01C1336.195 3522.01 1336.405 3520.2850000000003 1335.73 3520.2850000000003C1335.73 3520.2850000000003 1335.45 3520.3300000000004 1335.54 3519.925C1335.6299999999999 3519.52 1335.6 3518.215 1335.555 3517.7650000000003C1335.51 3517.3150000000005 1335.64 3516.03 1334.6950000000002 3515.8500000000004C1334.045 3515.7300000000005 1333.9700000000003 3515.9150000000004 1333.6550000000002 3515.8700000000003C1333.3400000000001 3515.8250000000003 1332.9650000000001 3515.01 1332.38 3515.01L1331.16 3515.2050000000004C1330.575 3515.2050000000004 1330.6650000000002 3515.385 1330.3500000000001 3515.4300000000003C1330.035 3515.4750000000004 1330.41 3515.385 1329.4650000000001 3515.5650000000005C1328.5200000000002 3515.7450000000003 1328.1850000000002 3516.9550000000004 1328.14 3517.4050000000007C1328.095 3517.8550000000005 1328.0400000000002 3519.1600000000008 1328.0700000000002 3519.8350000000005C1328.16 3520.2400000000007 1327.8450000000003 3520.2400000000007 1327.8450000000003 3520.2400000000007C1327.2750000000003 3520.205000000001 1327.5300000000002 3521.9650000000006 1327.5300000000002 3521.9650000000006C1327.6150000000002 3522.4000000000005 1327.505 3522.6150000000007 1328.3450000000003 3522.9500000000007C1328.7450000000003 3524.0900000000006 1329.9750000000004 3524.6600000000008 1329.9750000000004 3524.6600000000008C1329.9750000000004 3524.6600000000008 1330.0250000000003 3525.390000000001 1330.0400000000004 3525.9100000000008C1329.9550000000004 3525.8650000000007 1330.3600000000004 3527.2350000000006 1327.7500000000005 3527.620000000001C1325.1400000000006 3528.000000000001 1324.9350000000004 3528.8450000000007 1324.4450000000004 3529.315000000001C1323.9550000000004 3529.7850000000008 1323.9900000000005 3531.990000000001 1323.9900000000005 3531.990000000001H1339.7750000000005C1339.7750000000005 3531.990000000001 1339.6650000000006 3529.785000000001 1339.1750000000006 3529.315000000001C1338.6800000000007 3528.845000000001 1338.2300000000007 3528.000000000001 1335.6200000000006 3527.620000000001C1333.0100000000007 3527.2350000000006 1333.7300000000005 3525.9050000000007 1333.7150000000006 3525.8250000000007C1333.7150000000006 3525.620000000001 1333.8100000000006 3524.750000000001 1333.8100000000006 3524.750000000001C1333.8100000000006 3524.750000000001 1334.8200000000006 3524.0550000000007 1335.2200000000007 3522.920000000001C1335.8500000000008 3522.520000000001 1336.0900000000006 3522.465000000001 1336.1950000000006 3522.010000000001Z " fill="#5b9dd2" fill-opacity="1" transform="matrix(1,0,0,1,-1323,-3515)"></path></svg>