<svg id="SvgjsSvg1000" xmlns="http://www.w3.org/2000/svg" version="1.1" xmlns:xlink="http://www.w3.org/1999/xlink" xmlns:svgjs="http://svgjs.com/svgjs" width="22" height="18" viewBox="0 0 22 18"><title>Shape 3</title><desc>Created with Avocode.</desc><defs id="SvgjsDefs1001"></defs><path id="SvgjsPath1007" d="M727 1902.29L721.65 1906.58V1903.175H711.395C709.305 1903.175 707.6 1904.865 707.6 1906.945C707.6 1907.095 707.61 1907.24 707.63 1907.385L705.91 1908.83C705.6949999999999 1908.22 705.5899999999999 1907.585 705.5899999999999 1906.945C705.5899999999999 1903.7649999999999 708.1949999999999 1901.1799999999998 711.3949999999999 1901.1799999999998H721.6499999999999V1897.9999999999998ZM710.35 1907.42L705 1911.71L710.35 1916V1912.82H720.605C723.8050000000001 1912.82 726.41 1910.235 726.41 1907.0549999999998C726.41 1906.4149999999997 726.3 1905.7799999999997 726.0849999999999 1905.1699999999998L724.3699999999999 1906.6149999999998C724.3899999999999 1906.7599999999998 724.3999999999999 1906.9049999999997 724.3999999999999 1907.0549999999998C724.3999999999999 1909.1349999999998 722.6949999999998 1910.8249999999998 720.6049999999999 1910.8249999999998H710.3499999999999Z " fill="#74ba4e" fill-opacity="1" transform="matrix(1,0,0,1,-705,-1898)"></path></svg>