<svg id="SvgjsSvg1029" xmlns="http://www.w3.org/2000/svg" version="1.1" xmlns:xlink="http://www.w3.org/1999/xlink" xmlns:svgjs="http://svgjs.com/svgjs" width="17" height="22" viewBox="0 0 17 22"><title>Shape 11</title><desc>Created with Avocode.</desc><defs id="SvgjsDefs1030"></defs><path id="SvgjsPath1031" d="M1130.035 5075.8H1120.4V5076.35H1130.035ZM1126.065 5074.1H1120.4V5074.650000000001H1126.065ZM1127.765 5072.4H1120.4V5072.95H1127.765ZM1130.6 5070.7H1120.3999999999999V5071.3H1130.6ZM1126.065 5069.05H1120.4V5069.6H1126.065ZM1132.3 5080.3H1118.7V5063.400000000001H1122.665L1122.32 5064.400000000001C1120.84 5064.8 1120.3999999999999 5065.700000000001 1120.3999999999999 5066.750000000001H1130.6C1130.6 5065.650000000001 1130.225 5064.700000000001 1128.665 5064.350000000001L1128.335 5063.4000000000015H1132.3ZM1126.35 5061.7C1126.35 5062.15 1125.9699999999998 5062.55 1125.5 5062.55C1125.03 5062.55 1124.65 5062.150000000001 1124.65 5061.7C1124.65 5061.2 1125.0300000000002 5060.849999999999 1125.5 5060.849999999999C1125.97 5060.849999999999 1126.35 5061.2 1126.35 5061.7ZM1134 5082V5061.7H1127.2C1127.2 5060.75 1126.44 5060 1125.5 5060C1124.56 5060 1123.8 5060.75 1123.8 5061.7H1117V5082Z " fill="#19ab9e" fill-opacity="1" transform="matrix(1,0,0,1,-1117,-5060)"></path></svg>