<svg id="SvgjsSvg1017" xmlns="http://www.w3.org/2000/svg" version="1.1" xmlns:xlink="http://www.w3.org/1999/xlink" xmlns:svgjs="http://svgjs.com/svgjs" width="26" height="12" viewBox="0 0 26 12"><title>Shape 7</title><desc>Created with Avocode.</desc><defs id="SvgjsDefs1018"></defs><path id="SvgjsPath1019" d="M1347.5 3270.38V3269.44L1344.075 3272.12H1336.31V3273H1344.075ZM1344.075 3271.235L1347.5 3268.6150000000002V3267.675L1344.075 3270.355H1336.31V3271.235ZM1344.075 3269.47L1347.5 3266.85V3265.91L1344.075 3268.5899999999997H1336.31V3269.47ZM1344.075 3267.705L1347.5 3265.085V3264.145L1344.075 3266.825H1336.31V3267.705ZM1344.075 3265.94L1347.5 3263.32V3262.38L1344.075 3265.0550000000003H1336.31V3265.9400000000005ZM1344.05 3264.175L1347.5 3261.5H1339.95L1336.415 3264.175ZM1339.815 3263.32C1339.49 3263.46 1339.4650000000001 3263.1800000000003 1339.165 3263.21C1338.87 3263.235 1339.76 3262.465 1339.76 3262.465C1339.785 3262.27 1339.92 3262.77 1340.19 3262.77C1340.46 3262.77 1340.135 3263.18 1339.815 3263.32ZM1340.98 3262.305C1340.945 3262.46 1341.105 3262.865 1341.08 3263.0699999999997C1341.0549999999998 3263.3199999999997 1340.705 3263.5399999999995 1340.625 3263.18C1340.555 3262.89 1340.86 3262.46 1340.98 3262.305C1340.9850000000001 3262.2749999999996 1341 3262.25 1341.03 3262.245C1341.03 3262.245 1341.0049999999999 3262.27 1340.98 3262.305ZM1341.73 3263.595C1341.08 3263.6499999999996 1341.555 3263.31 1341.675 3263.1549999999997C1342.05 3262.66 1341.405 3263.0699999999997 1341.43 3262.825C1341.46 3262.575 1341.38 3262.52 1341.65 3262.325C1341.9150000000002 3262.1349999999998 1342.16 3262.7949999999996 1342.375 3263.1C1342.59 3263.4049999999997 1342.375 3263.54 1341.73 3263.595ZM1343.695 3262.795C1343.345 3262.795 1343.615 3262.96 1343.51 3263.32C1343.4 3263.6800000000003 1343.21 3263.4300000000003 1343.05 3263.235C1342.8899999999999 3263.045 1343.2949999999998 3263.045 1342.915 3262.55C1342.54 3262.05 1343.565 3262.105 1343.565 3262.105C1344.425 3262.215 1344.05 3262.795 1343.6950000000002 3262.795ZM1335.445 3264.175L1338.76 3261.53H1334.745L1331.1299999999999 3264.175V3273H1335.445ZM1330.16 3264.175L1333.6100000000001 3261.5H1326.14L1322.6100000000001 3264.175ZM1327.705 3263.265C1327.625 3263.46 1327.0049999999999 3263.4049999999997 1326.76 3263.35C1326.52 3263.29 1326.41 3263.4049999999997 1325.9 3263.375C1325.385 3263.35 1325.845 3262.905 1325.98 3262.575C1326.115 3262.245 1326.385 3262.605 1326.6 3262.74C1326.8149999999998 3262.8799999999997 1326.84 3262.685 1326.975 3262.52C1327.11 3262.355 1327.5449999999998 3262.55 1327.73 3262.685C1327.92 3262.825 1327.795 3263.055 1327.705 3263.265ZM1329.295 3263.1C1329.22 3263.2149999999997 1329.19 3263.515 1328.92 3263.29C1328.65 3263.07 1328.515 3262.795 1328.515 3262.795C1328.515 3262.795 1328.8100000000002 3262.215 1328.97 3262.44C1329.135 3262.66 1329.7 3262.465 1329.295 3263.1ZM1330.24 3262.88C1330.185 3263.045 1330.05 3263.625 1329.89 3263.405C1329.73 3263.1800000000003 1329.595 3263.155 1329.595 3262.77C1329.595 3262.38 1329.43 3262.215 1329.865 3262.355C1330.295 3262.495 1330.32 3261.97 1330.35 3262.3C1330.35 3262.3 1330.2949999999998 3262.715 1330.24 3262.88ZM1330.265 3265.055H1322.5V3265.94H1330.265ZM1330.265 3266.825H1322.5V3267.705H1330.265ZM1330.265 3268.59H1322.5V3269.4700000000003H1330.265ZM1330.265 3270.355H1322.5V3271.235H1330.265ZM1330.265 3273H1322.5V3272.12H1330.265Z " fill="#5b9dd2" fill-opacity="1" transform="matrix(1,0,0,1,-1322,-3261)"></path></svg>