<svg id="SvgjsSvg1044" xmlns="http://www.w3.org/2000/svg" version="1.1" xmlns:xlink="http://www.w3.org/1999/xlink" xmlns:svgjs="http://svgjs.com/svgjs" width="16" height="22" viewBox="0 0 16 22"><title>Shape 15</title><desc>Created with Avocode.</desc><defs id="SvgjsDefs1045"></defs><path id="SvgjsPath1046" d="M1334.99 5725.8C1333.77 5726.400000000001 1332.8 5726.85 1332.8 5726.85C1332.45 5727 1332.1 5727.8 1332.3899999999999 5728.35L1335.3649999999998 5735.1C1335.5449999999998 5735.450000000001 1336.2699999999998 5735.75 1336.62 5735.6C1336.62 5735.6 1337.475 5735.200000000001 1338.61 5734.75C1339.0549999999998 5734.55 1339.6399999999999 5734.45 1339.99 5734.85L1341.785 5738.8C1342.385 5740.2 1341.75 5740.7 1339.7450000000001 5741.25C1336.0200000000002 5742.3 1332.5000000000002 5740.1 1329.0300000000002 5731.2C1328.5450000000003 5729.95 1328.015 5728.099999999999 1328.0000000000002 5726C1327.9750000000001 5721.2 1332.3150000000003 5720.05 1332.3150000000003 5720.05C1332.6450000000002 5719.900000000001 1333.4050000000002 5720.3 1333.5500000000002 5720.6L1335.4600000000003 5724.85C1335.4800000000002 5725.400000000001 1335.2850000000003 5725.650000000001 1334.9900000000002 5725.8Z " fill="#19ab9e" fill-opacity="1" transform="matrix(1,0,0,1,-1327,-5720)"></path></svg>