<svg id="SvgjsSvg1038" xmlns="http://www.w3.org/2000/svg" version="1.1" xmlns:xlink="http://www.w3.org/1999/xlink" xmlns:svgjs="http://svgjs.com/svgjs" width="18" height="18" viewBox="0 0 18 18"><title>Shape 13</title><desc>Created with Avocode.</desc><defs id="SvgjsDefs1039"></defs><path id="SvgjsPath1040" d="M1754.495 5080V5079.45H1737.5049999999999V5080ZM1749.24 5078.85H1753.71V5063.900000000001H1749.24ZM1744.035 5078.85H1748.555V5068.35H1744.035ZM1738.88 5078.8H1743.4450000000002V5073.650000000001H1738.88ZM1737.51 5078.75H1738.02V5078.2H1737.51ZM1737.51 5077.35H1738.02V5076.85H1737.51ZM1737.51 5075.9H1738.02V5075.4H1737.51ZM1737.51 5074.4H1738.02V5073.9H1737.51ZM1737.51 5073H1738.02V5072.45H1737.51ZM1737.51 5071.6H1738.02V5071.1H1737.51ZM1737.51 5070.15H1738.02V5069.65H1737.51ZM1737.51 5068.75H1738.02V5068.25H1737.51ZM1737.51 5067.3H1738.02V5066.75H1737.51ZM1737.51 5065.85H1738.02V5065.35H1737.51ZM1737.51 5064.45H1738.02V5063.95H1737.51ZM1737.51 5062.5H1738.02V5063H1737.51Z " fill="#19ab9e" fill-opacity="1" transform="matrix(1,0,0,1,-1737,-5062)"></path></svg>