<svg id="SvgjsSvg1032" xmlns="http://www.w3.org/2000/svg" version="1.1" xmlns:xlink="http://www.w3.org/1999/xlink" xmlns:svgjs="http://svgjs.com/svgjs" width="22" height="10" viewBox="0 0 22 10"><title>Shape 12</title><desc>Created with Avocode.</desc><defs id="SvgjsDefs1033"></defs><path id="SvgjsPath1034" d="M1443.985 5076H1437.1499999999999V5075.25H1443.985L1447 5072.9V5073.7ZM1437.15 5074.45V5073.7H1443.9850000000001L1447.0000000000002 5071.349999999999V5072.2L1443.9850000000001 5074.45ZM1437.15 5072.95V5072.15H1443.9850000000001L1447.0000000000002 5069.849999999999V5070.65L1443.9850000000001 5072.95ZM1437.15 5071.4V5070.65H1443.9850000000001L1447.0000000000002 5068.299999999999V5069.099999999999L1443.9850000000001 5071.4ZM1437.15 5069.85V5069.1H1443.9850000000001L1447.0000000000002 5066.75V5067.6L1443.9850000000001 5069.85ZM1437.245 5068.35L1440.3549999999998 5066H1446.9999999999998L1443.9599999999998 5068.35ZM1440.57 5067.1C1440.33 5067.1 1440.215 5066.650000000001 1440.1899999999998 5066.85C1440.1899999999998 5066.85 1439.4049999999997 5067.5 1439.6649999999997 5067.5C1439.9299999999998 5067.45 1439.9499999999998 5067.7 1440.2349999999997 5067.6C1440.5199999999998 5067.450000000001 1440.8049999999996 5067.1 1440.5699999999997 5067.1ZM1441.305 5066.65C1441.28 5066.65 1441.27 5066.65 1441.26 5066.7C1441.16 5066.849999999999 1440.89 5067.2 1440.95 5067.45C1441.02 5067.75 1441.3300000000002 5067.599999999999 1441.3500000000001 5067.349999999999C1441.3700000000001 5067.2 1441.2300000000002 5066.849999999999 1441.2600000000002 5066.7C1441.2850000000003 5066.65 1441.3050000000003 5066.65 1441.3050000000003 5066.65ZM1442.49 5067.4C1442.3 5067.15 1442.085 5066.549999999999 1441.85 5066.7C1441.615 5066.9 1441.685 5066.95 1441.6599999999999 5067.15C1441.6349999999998 5067.349999999999 1442.205 5067 1441.8749999999998 5067.45C1441.7699999999998 5067.599999999999 1441.3499999999997 5067.849999999999 1441.9199999999998 5067.8C1442.4899999999998 5067.75 1442.6799999999998 5067.650000000001 1442.4899999999998 5067.400000000001ZM1443.535 5066.55C1443.535 5066.55 1442.635 5066.5 1442.9650000000001 5066.900000000001C1443.3000000000002 5067.35 1442.94 5067.35 1443.085 5067.500000000001C1443.2250000000001 5067.700000000001 1443.395 5067.900000000001 1443.49 5067.600000000001C1443.585 5067.250000000001 1443.345 5067.1500000000015 1443.655 5067.1500000000015C1443.96 5067.1500000000015 1444.295 5066.600000000001 1443.535 5066.550000000001ZM1436.39 5076H1432.595V5068.35L1435.775 5066H1439.3100000000002L1436.39 5068.35ZM1425.095 5068.35L1428.205 5066H1434.78L1431.74 5068.35ZM1429.605 5067.05C1429.44 5066.900000000001 1429.06 5066.75 1428.94 5066.900000000001C1428.8200000000002 5067.05 1428.795 5067.200000000001 1428.605 5067.1C1428.42 5066.950000000001 1428.18 5066.650000000001 1428.06 5066.950000000001C1427.945 5067.200000000001 1427.54 5067.6 1427.99 5067.650000000001C1428.44 5067.650000000001 1428.535 5067.55 1428.75 5067.6C1428.965 5067.650000000001 1429.51 5067.700000000001 1429.58 5067.55C1429.655 5067.35 1429.77 5067.150000000001 1429.605 5067.05ZM1430.695 5066.8C1430.5549999999998 5066.6 1430.29 5067.150000000001 1430.29 5067.150000000001C1430.29 5067.150000000001 1430.4099999999999 5067.35 1430.6499999999999 5067.55C1430.8849999999998 5067.75 1430.915 5067.5 1430.9799999999998 5067.400000000001C1431.3349999999998 5066.85 1430.8399999999997 5067.000000000001 1430.6949999999997 5066.8ZM1431.905 5066.7C1431.8799999999999 5066.4 1431.86 5066.849999999999 1431.48 5066.75C1431.1 5066.6 1431.24 5066.75 1431.24 5067.1C1431.24 5067.450000000001 1431.36 5067.450000000001 1431.505 5067.650000000001C1431.6450000000002 5067.85 1431.765 5067.35 1431.8100000000002 5067.200000000001C1431.8600000000001 5067.050000000001 1431.9050000000002 5066.700000000001 1431.9050000000002 5066.700000000001ZM1431.835 5069.85H1425V5069.1H1431.835ZM1431.835 5071.4H1425V5070.65H1431.835ZM1431.835 5072.95H1425V5072.15H1431.835ZM1431.835 5074.45H1425V5073.7H1431.835ZM1431.835 5075.25H1425V5076H1431.835Z " fill="#19ab9e" fill-opacity="1" transform="matrix(1,0,0,1,-1425,-5066)"></path></svg>