<svg id="SvgjsSvg1053" xmlns="http://www.w3.org/2000/svg" version="1.1" xmlns:xlink="http://www.w3.org/1999/xlink" xmlns:svgjs="http://svgjs.com/svgjs" width="47" height="47" viewBox="0 0 47 47"><title>to top</title><desc>Created with Avocode.</desc><defs id="SvgjsDefs1054"><clipPath id="SvgjsClipPath1057"><path id="SvgjsPath1056" d="M2470.75 6675C2483.59 6675 2494 6685.4 2494 6698.25C2494 6711.1 2483.59 6721.5 2470.75 6721.5C2457.91 6721.5 2447.5 6711.1 2447.5 6698.25C2447.5 6685.4 2457.91 6675 2470.75 6675Z " fill="#ffffff"></path></clipPath></defs><path id="SvgjsPath1055" d="M2470.75 6675C2483.59 6675 2494 6685.4 2494 6698.25C2494 6711.1 2483.59 6721.5 2470.75 6721.5C2457.91 6721.5 2447.5 6711.1 2447.5 6698.25C2447.5 6685.4 2457.91 6675 2470.75 6675Z " fill-opacity="0" fill="#ffffff" stroke-dashoffset="0" stroke-linejoin="miter" stroke-linecap="butt" stroke-opacity="1" stroke="#19ab9e" stroke-miterlimit="50" stroke-width="4" clip-path="url(&quot;#SvgjsClipPath1057&quot;)" transform="matrix(1,0,0,1,-2447,-6675)"></path><path id="SvgjsPath1058" d="M2478.455 6701.75L2470.75 6695.2L2463.04 6701.75L2461.45 6699.95L2470.75 6692.05L2480.05 6699.95Z " fill="#19ab9e" fill-opacity="1" transform="matrix(1,0,0,1,-2447,-6675)"></path></svg>